#!OML:ASF E:/inclinewalkrobotboard/Project1/Captureday1/Session1/subject1.ASF
:FULLY-SPECIFIED
:DEGREES
126
root 0 0 0 -0.512009632128746 -3.0159887085689183 -0.19774778393159764
lowerback 11.215206390343733 0.634852810619262 0.40018714421380375
upperback -1.9369419283556941 0.9279481044433316 0.4990298631146348
thorax -8.36887107361528 0.4320459064190642 0.1111449038638368
lowerneck -11.42435918112211 -0.6352544261776106 1.3425550920154647
upperneck 18.860428173307056 -0.25855940896980534 -3.892021464066743
head 7.825469349482635 -0.31803455296107697 -1.5671464464394549
rclavicle -5.486237898537404E-16 -6.203638793757779E-16
rhumerus -0.5216832626779038 0.9119261410235247 -60.20950978813451
rradius 53.34289841093274
rwrist 17.455007142352002
rhand -27.24334034552696 -23.44041223371805
rfingers 7.125019999999925
rthumb -0.8368820454584318 -53.57794963099896
lclavicle -4.900731677431905E-16 -6.937026251119392E-16
lhumerus -1.2851662707664282 -6.927464448990195 60.48088895992398
lradius 52.64746705062757
lwrist -11.137854863974152
lhand -37.273914371672234 -31.23672961988821
lfingers 7.12501999999992
lthumb -10.375966430291909 -1.685354577516609
rfemur -21.38072440216269 -0.3397213606868128 19.54674501191812
rtibia 50.610546652824326
rfoot -22.764416446392218 -13.850674167367757
rtoes -12.221434638491544
lfemur -23.118705762976198 1.5450938154219789 -18.14323262693959
ltibia 50.113419237953124
lfoot -25.94299050984796 -3.6528397750746775
ltoes -16.711545308903368
127
root 0 0 0 -0.510085135350641 -3.0165795059346676 -0.19587828573632826
lowerback 11.215906228640529 0.6351492835850783 0.3997906792265141
upperback -1.939345955453763 0.9282266529167797 0.497958099745148
thorax -8.371955907209118 0.4321350514087103 0.11020432380544642
lowerneck -11.419254586564625 -0.6330731796753172 1.345740699302277
upperneck 18.860107674188107 -0.2553577047914799 -3.8961989803222403
head 7.824542660142669 -0.31664234438638394 -1.5687407389091432
rclavicle -5.483152452192236E-16 -6.199316173169999E-16
rhumerus -0.5195484258525447 0.9130545746122962 -60.209105608524624
rradius 53.344298767084055
rwrist 17.455434486668644
rhand -27.243667461187147 -23.44204449986995
rfingers 7.125019999999925
rthumb -0.8369232332406975 -53.578662754172626
lclavicle -4.899239727280385E-16 -6.930137376294024E-16
lhumerus -1.2863934677305018 -6.927052052426366 60.48177242788893
lradius 52.644307063591036
lwrist -11.136861915028904
lhand -37.27282474094018 -31.23474625486061
lfingers 7.12501999999992
lthumb -10.375265844745247 -1.6811781244763786
rfemur -21.381863108836693 -0.34045527884551596 19.545776232916104
rtibia 50.612174835311876
rfoot -22.766589081316003 -13.852102576738922
rtoes -12.224224619602474
lfemur -23.128921878295852 1.5475611458621497 -18.141940173783222
ltibia 50.1259084757983
lfoot -25.95767981948282 -3.6533256780469756
ltoes -16.72049882168541
128
root 0 0 0 -0.5094499431644722 -3.0168036175109356 -0.1952633758723843
lowerback 11.21615414074214 0.6352659678021366 0.39968163620447156
upperback -1.9401667099280022 0.9283220897963862 0.49757956604587456
thorax -8.372999351350956 0.4321663816319509 0.10985034612736627
lowerneck -11.4174934942182 -0.6323536609579579 1.3468115324983845
upperneck 18.859975511902633 -0.25425107126767843 -3.897630574022563
head 7.8242082803781265 -0.3161547358845167 -1.5692714331778048
rclavicle -5.483696566217497E-16 -6.198386892722466E-16
rhumerus -0.5208521240105153 0.9121733247369885 -60.20993069889509
rradius 53.34305632584176
rwrist 17.454772151639318
rhand -27.243195056309432 -23.439914958472237
rfingers 7.125019999999925
rthumb -0.83646597715898 -53.5766159923229
lclavicle -4.900118181042491E-16 -6.929395673200093E-16
lhumerus -1.2925546554325056 -6.9255432383260445 60.486103379118894
lradius 52.63947501089989
lwrist -11.1336544876946
lhand -37.27074041672874 -31.22388341699032
lfingers 7.12501999999992
lthumb -10.373296624286821 -1.6703792870431933
rfemur -21.383564563559226 -0.34158795191729396 19.544345949092342
rtibia 50.61477421467304
rfoot -22.769898704216434 -13.853679546832659
rtoes -12.227620443910823
lfemur -23.131385688681487 1.5481410785897145 -18.141710241967417
ltibia 50.12856307856033
lfoot -25.961042940417798 -3.653369625100326
ltoes -16.722656714118106
129
root 0 0 0 -0.509228549726775 -3.0168642016983993 -0.19501432674596186
lowerback 11.216239063012171 0.6352978585792859 0.3996171137159663
upperback -1.9404560585487443 0.9283396860893591 0.4974440933738979
thorax -8.373350694018978 0.43217550193077986 0.10973769599327587
lowerneck -11.416871564583465 -0.6320966386142095 1.3471811777992515
upperneck 18.85992376159345 -0.25385825988369115 -3.8981304816963647
head 7.824088687193171 -0.31598108387782553 -1.569458618271486
rclavicle -5.483381626335872E-16 -6.197546631368236E-16
rhumerus -0.5278630040805918 0.907561376423093 -60.21413987939307
rradius 53.33665381267692
rwrist 17.451535239743965
rhand -27.24084767341736 -23.428702614419592
rfingers 7.125019999999925
rthumb -0.8342718768625801 -53.565478371896646
lclavicle -4.901301333040044E-16 -6.929002048858947E-16
lhumerus -1.2996436352140535 -6.92385422403011 60.491104746931526
lradius 52.634029565880226
lwrist -11.129950546774271
lhand -37.26837406817024 -31.211525205694116
lfingers 7.12501999999992
lthumb -10.371036577445054 -1.6579024485874498
rfemur -21.38553590473577 -0.3427782225064351 19.54274733033676
rtibia 50.61735635440345
rfoot -22.773416833488483 -13.855397832063343
rtoes -12.231353413974226
lfemur -23.128526038740816 1.5474434935289874 -18.142011231229752
ltibia 50.12504346549519
lfoot -25.957044764476933 -3.6531846156856393
ltoes -16.72002216196629
130
root 0 0 0 -0.5122070249655569 -3.0159329104444543 -0.1979662307170783
lowerback 11.215130091717738 0.6348242227393549 0.400243517001073
upperback -1.9366819868191483 0.9279304398512997 0.4991494713825803
thorax -8.368547782344761 0.432037346665447 0.11124561200390287
lowerneck -11.424909494431262 -0.6354879296977549 1.3422151256792556
upperneck 18.860472112897867 -0.2589114739400764 -3.8915762099810527
head 7.8255776903227545 -0.3181876716524211 -1.5669779154693906
rclavicle -5.486145173615253E-16 -6.203847198489555E-16
rhumerus -0.5200515556053382 0.9129982873013187 -60.20852989575099
rradius 53.344392494504774
rwrist 17.455767208171142
rhand -27.243887019731215 -23.44302209787473
rfingers 7.125019999999925
rthumb -0.8373963656464083 -53.580545265920215
lclavicle -4.90042239944941E-16 -6.937157560025675E-16
lhumerus -1.2826509564595465 -6.928073379608371 60.479129008975214
lradius 52.64942004428972
lwrist -11.139160926158599
lhand -37.27475382186821 -31.241128639067767
lfingers 7.12501999999992
lthumb -10.376770400108796 -1.6897884837487744
rfemur -21.37943635391934 -0.3389187661058295 19.547810573717538
rtibia 50.60878130749417
rfoot -22.762061113569423 -13.849533481837092
rtoes -12.218947708165896
lfemur -23.120708220477145 1.5455871114784316 -18.1430279922854
ltibia 50.11590691603202
lfoot -25.94582896827769 -3.6529553236607772
ltoes -16.71340804143602
131
root 0 0 0 -0.510245862905838 -3.0165485962532466 -0.19607223450572764
lowerback 11.215844599427562 0.6351348111060912 0.3998503349711049
upperback -1.9391353254458152 0.928223010877046 0.4980539339931285
thorax -8.37169144321086 0.43213014490566914 0.11027614181626555
lowerneck -11.419704733226592 -0.6332723737680802 1.345461849253718
upperneck 18.86014612022651 -0.2556497490735814 -3.895832584959069
head 7.824632692492066 -0.31676695709089187 -1.5686017003830612
rclavicle -5.48307084168448E-16 -6.199437310931797E-16
rhumerus -0.5184693963121632 0.9137670942703071 -60.20846366985133
rradius 53.34528128195575
rwrist 17.4559292250586
rhand -27.244026262432218 -23.4437636432041
rfingers 7.125019999999925
rthumb -0.8372592168597652 -53.580360945058445
lclavicle -4.899258401157494E-16 -6.93012668800994E-16
lhumerus -1.286218616628048 -6.927093695846983 60.48164723137772
lradius 52.64444691512694
lwrist -11.13695335512013
lhand -37.272884369870155 -31.235059325221116
lfingers 7.12501999999992
lthumb -10.37532290304872 -1.6815001008982975
rfemur -21.3801033092394 -0.3393804662871389 19.547216143286047
rtibia 50.60983227022229
rfoot -22.76341718185812 -13.850561697982307
rtoes -12.220875198994356
lfemur -23.13092842180739 1.5480515213334882 -18.141727610530594
ltibia 50.12836073748785
lfoot -25.960496044092245 -3.6534325153031233
ltoes -16.722335869407782
132
root 0 0 0 -0.5095593949046969 -3.016797683578606 -0.1954127644001309
lowerback 11.216112721704654 0.6352652370786742 0.39973705375950785
upperback -1.9400242044482954 0.9283310118090966 0.4976434753177337
thorax -8.372818149540679 0.4321651751606112 0.10988861885865264
lowerneck -11.41780243756945 -0.6324989098157769 1.3466192517958524
upperneck 18.86000487830441 -0.2544558261277494 -3.8973771044993812
head 7.824271667612003 -0.3162396261530729 -1.5691747322523895
rclavicle -5.483603747579465E-16 -6.198461161462558E-16
rhumerus -0.5200577068109453 0.9127018890873391 -60.2094643921439
rradius 53.3437749198375
rwrist 17.455127527550754
rhand -27.243456343053566 -23.44117261400836
rfingers 7.125019999999925
rthumb -0.8367087783251534 -53.57784652517459
lclavicle -4.900377545217361E-16 -6.929289222190747E-16
lhumerus -1.2940456878478095 -6.925180378724949 60.487140525208204
lradius 52.63832380323352
lwrist -11.132882279226887
lhand -37.270245259140275 -31.22128867202654
lfingers 7.12501999999992
lthumb -10.372822240371146 -1.6677741773677823
rfemur -21.381554029182727 -0.3403730485515184 19.545981400109575
rtibia 50.6121393878773
rfoot -22.766302798740348 -13.851929687517567
rtoes -12.223822955157754
lfemur -23.133280097251145 1.5486008516482566 -18.141503847803467
ltibia 50.13084612868265
lfoot -25.963679663366 -3.65346343080968
ltoes -16.724367823160208
133
root 0 0 0 -0.509280945885607 -3.016880759876887 -0.195108567557152
lowerback 11.216219961661553 0.6353091670870308 0.39966312169284757
upperback -1.9403888277063284 0.9283587417989841 0.49747318530677975
thorax -8.373262648905758 0.43217764452683904 0.10974233193140459
lowerneck -11.417022778182409 -0.6321786346123879 1.3470857884661502
upperneck 18.85994214981492 -0.25396401788692313 -3.8980041777306518
head 7.824121818206796 -0.3160218436438572 -1.5694096030294749
rclavicle -5.483268399441166E-16 -6.197602217832471E-16
rhumerus -0.5271724565285307 0.908024004818424 -60.21373909837681
rradius 53.33727589897384
rwrist 17.451837177217982
rhand -27.24107272624945 -23.429789573585694
rfingers 7.125019999999925
rthumb -0.8344794175258832 -53.566532963550685
lclavicle -4.901712529018548E-16 -6.928841057123459E-16
lhumerus -1.3021611237956545 -6.9232415383395685 60.49285719953496
lradius 52.63208235603743
lwrist -11.128646732175238
lhand -37.267537276633306 -31.20713934160635
lfingers 7.12501999999992
lthumb -10.370234841759283 -1.6534942367428265
rfemur -21.383463679042215 -0.3415350652859557 19.544426332736233
rtibia 50.6146690869479
rfoot -22.769730257863557 -13.85360174964728
rtoes -12.227459854794912
lfemur -23.130237218117756 1.5478562068933872 -18.14182040773718
ltibia 50.127079862470325
lfoot -25.959409019661134 -3.653263701671424
ltoes -16.721549351305917
